<mxfile host="65bd71144e">
    <diagram id="hV4s7hQIV8xcXcN_CmN5" name="Page-1">
        <mxGraphModel dx="1966" dy="990" grid="1" gridSize="10" guides="1" tooltips="1" connect="1" arrows="1" fold="1" page="1" pageScale="1" pageWidth="850" pageHeight="1100" math="0" shadow="0">
            <root>
                <mxCell id="0"/>
                <mxCell id="1" parent="0"/>
                <mxCell id="2" value="&lt;span style=&quot;font-size: 24px;&quot;&gt;Website&lt;/span&gt;" style="rounded=0;whiteSpace=wrap;html=1;" parent="1" vertex="1">
                    <mxGeometry x="365" y="30" width="120" height="60" as="geometry"/>
                </mxCell>
                <mxCell id="3" value="user" style="shape=umlActor;verticalLabelPosition=bottom;verticalAlign=top;html=1;outlineConnect=0;fontSize=24;" parent="1" vertex="1">
                    <mxGeometry x="680" y="100" width="30" height="60" as="geometry"/>
                </mxCell>
                <mxCell id="7" value="" style="endArrow=classic;html=1;fontSize=24;entryX=1;entryY=0.75;entryDx=0;entryDy=0;" parent="1" source="3" target="2" edge="1">
                    <mxGeometry width="50" height="50" relative="1" as="geometry">
                        <mxPoint x="400" y="520" as="sourcePoint"/>
                        <mxPoint x="450" y="470" as="targetPoint"/>
                    </mxGeometry>
                </mxCell>
                <mxCell id="8" value="Display the action live" style="shape=display;whiteSpace=wrap;html=1;fontSize=24;" parent="1" vertex="1">
                    <mxGeometry x="220" y="160" width="410" height="70" as="geometry"/>
                </mxCell>
                <mxCell id="9" value="" style="endArrow=classic;html=1;fontSize=24;exitX=0.5;exitY=1;exitDx=0;exitDy=0;" parent="1" source="2" edge="1">
                    <mxGeometry width="50" height="50" relative="1" as="geometry">
                        <mxPoint x="400" y="190" as="sourcePoint"/>
                        <mxPoint x="425" y="160" as="targetPoint"/>
                    </mxGeometry>
                </mxCell>
                <mxCell id="11" value="" style="endArrow=classic;html=1;fontSize=24;exitX=0.501;exitY=1.057;exitDx=0;exitDy=0;exitPerimeter=0;" parent="1" source="8" target="12" edge="1">
                    <mxGeometry width="50" height="50" relative="1" as="geometry">
                        <mxPoint x="400" y="470" as="sourcePoint"/>
                        <mxPoint x="425" y="290" as="targetPoint"/>
                    </mxGeometry>
                </mxCell>
                <mxCell id="12" value="Backend" style="rounded=0;whiteSpace=wrap;html=1;fontSize=24;" parent="1" vertex="1">
                    <mxGeometry x="365" y="260" width="120" height="60" as="geometry"/>
                </mxCell>
                <mxCell id="13" value="" style="curved=1;endArrow=classic;html=1;fontSize=24;exitX=0;exitY=0.5;exitDx=0;exitDy=0;" parent="1" source="12" target="14" edge="1">
                    <mxGeometry width="50" height="50" relative="1" as="geometry">
                        <mxPoint x="400" y="470" as="sourcePoint"/>
                        <mxPoint x="220" y="410" as="targetPoint"/>
                        <Array as="points">
                            <mxPoint x="110" y="280"/>
                            <mxPoint x="80" y="400"/>
                            <mxPoint x="220" y="400"/>
                        </Array>
                    </mxGeometry>
                </mxCell>
                <mxCell id="14" value="Websocket" style="rounded=0;whiteSpace=wrap;html=1;fontSize=24;" parent="1" vertex="1">
                    <mxGeometry x="160" y="420" width="120" height="60" as="geometry"/>
                </mxCell>
                <mxCell id="15" value="" style="curved=1;endArrow=classic;html=1;fontSize=24;exitX=1;exitY=0.75;exitDx=0;exitDy=0;entryX=0.5;entryY=1;entryDx=0;entryDy=0;" parent="1" source="14" target="12" edge="1">
                    <mxGeometry width="50" height="50" relative="1" as="geometry">
                        <mxPoint x="400" y="470" as="sourcePoint"/>
                        <mxPoint x="450" y="420" as="targetPoint"/>
                        <Array as="points">
                            <mxPoint x="450" y="410"/>
                            <mxPoint x="350" y="360"/>
                        </Array>
                    </mxGeometry>
                </mxCell>
                <mxCell id="16" value="FrontEnd" style="rounded=0;whiteSpace=wrap;html=1;fontSize=24;" parent="1" vertex="1">
                    <mxGeometry x="635" y="260" width="120" height="60" as="geometry"/>
                </mxCell>
                <mxCell id="17" value="" style="shape=flexArrow;endArrow=classic;startArrow=classic;html=1;fontSize=24;entryX=0;entryY=0.5;entryDx=0;entryDy=0;" parent="1" source="12" target="16" edge="1">
                    <mxGeometry width="100" height="100" relative="1" as="geometry">
                        <mxPoint x="370" y="500" as="sourcePoint"/>
                        <mxPoint x="470" y="400" as="targetPoint"/>
                    </mxGeometry>
                </mxCell>
                <mxCell id="18" value="" style="endArrow=classic;html=1;fontSize=24;exitX=0.5;exitY=1;exitDx=0;exitDy=0;" parent="1" source="16" target="19" edge="1">
                    <mxGeometry width="50" height="50" relative="1" as="geometry">
                        <mxPoint x="400" y="470" as="sourcePoint"/>
                        <mxPoint x="695" y="440" as="targetPoint"/>
                    </mxGeometry>
                </mxCell>
                <mxCell id="19" value="Render Live State" style="shape=display;whiteSpace=wrap;html=1;fontSize=24;" parent="1" vertex="1">
                    <mxGeometry x="580" y="420" width="230" height="40" as="geometry"/>
                </mxCell>
                <mxCell id="21" value="Accept Input &amp;amp; Commands" style="shape=manualInput;whiteSpace=wrap;html=1;fontSize=24;" parent="1" vertex="1">
                    <mxGeometry x="590" y="530" width="230" height="80" as="geometry"/>
                </mxCell>
                <mxCell id="22" value="" style="shape=flexArrow;endArrow=classic;startArrow=classic;html=1;fontSize=24;entryX=0.517;entryY=0.99;entryDx=0;entryDy=0;entryPerimeter=0;" parent="1" source="21" target="19" edge="1">
                    <mxGeometry width="100" height="100" relative="1" as="geometry">
                        <mxPoint x="370" y="480" as="sourcePoint"/>
                        <mxPoint x="470" y="380" as="targetPoint"/>
                    </mxGeometry>
                </mxCell>
                <mxCell id="23" value="Live State Data" style="shape=datastore;whiteSpace=wrap;html=1;fontSize=24;" parent="1" vertex="1">
                    <mxGeometry x="155" y="580" width="130" height="140" as="geometry"/>
                </mxCell>
                <mxCell id="24" value="" style="shape=flexArrow;endArrow=classic;startArrow=classic;html=1;fontSize=24;entryX=0.5;entryY=1;entryDx=0;entryDy=0;exitX=0.5;exitY=0;exitDx=0;exitDy=0;" parent="1" source="23" target="14" edge="1">
                    <mxGeometry width="100" height="100" relative="1" as="geometry">
                        <mxPoint x="370" y="480" as="sourcePoint"/>
                        <mxPoint x="470" y="380" as="targetPoint"/>
                    </mxGeometry>
                </mxCell>
                <mxCell id="25" value="" style="endArrow=classic;html=1;fontSize=24;exitX=0;exitY=0.75;exitDx=0;exitDy=0;" parent="1" source="21" target="23" edge="1">
                    <mxGeometry relative="1" as="geometry">
                        <mxPoint x="370" y="430" as="sourcePoint"/>
                        <mxPoint x="470" y="430" as="targetPoint"/>
                    </mxGeometry>
                </mxCell>
                <mxCell id="26" value="" style="shape=message;html=1;outlineConnect=0;fontSize=24;" parent="25" vertex="1">
                    <mxGeometry width="20" height="14" relative="1" as="geometry">
                        <mxPoint x="-10" y="-7" as="offset"/>
                    </mxGeometry>
                </mxCell>
                <mxCell id="27" value="Runtime Loop/CRON" style="shape=cylinder3;whiteSpace=wrap;html=1;boundedLbl=1;backgroundOutline=1;size=15;fontSize=24;" parent="1" vertex="1">
                    <mxGeometry x="320" y="710" width="240" height="120" as="geometry"/>
                </mxCell>
                <mxCell id="29" value="" style="shape=flexArrow;endArrow=classic;startArrow=classic;html=1;fontSize=24;exitX=0;exitY=0;exitDx=0;exitDy=82.5;exitPerimeter=0;" parent="1" source="27" edge="1">
                    <mxGeometry width="100" height="100" relative="1" as="geometry">
                        <mxPoint x="120" y="820" as="sourcePoint"/>
                        <mxPoint x="220" y="720" as="targetPoint"/>
                    </mxGeometry>
                </mxCell>
            </root>
        </mxGraphModel>
    </diagram>
    <diagram id="oQ5C9LWhT141lC8fnzxW" name="Page-2">
        <mxGraphModel dx="1619" dy="815" grid="1" gridSize="10" guides="1" tooltips="1" connect="1" arrows="1" fold="1" page="1" pageScale="1" pageWidth="850" pageHeight="1100" math="0" shadow="0">
            <root>
                <mxCell id="0"/>
                <mxCell id="1" parent="0"/>
                <mxCell id="-OjTY9dWrXUYTkJHeMld-1" value="Runtime Loop/CRON" style="shape=cylinder3;whiteSpace=wrap;html=1;boundedLbl=1;backgroundOutline=1;size=15;fontSize=24;" parent="1" vertex="1">
                    <mxGeometry x="305" y="90" width="240" height="120" as="geometry"/>
                </mxCell>
                <mxCell id="-OjTY9dWrXUYTkJHeMld-2" value="" style="endArrow=classic;html=1;fontSize=24;exitX=0.5;exitY=1;exitDx=0;exitDy=0;exitPerimeter=0;" parent="1" source="-OjTY9dWrXUYTkJHeMld-1" target="-OjTY9dWrXUYTkJHeMld-3" edge="1">
                    <mxGeometry width="50" height="50" relative="1" as="geometry">
                        <mxPoint x="400" y="530" as="sourcePoint"/>
                        <mxPoint x="425" y="320" as="targetPoint"/>
                    </mxGeometry>
                </mxCell>
                <mxCell id="-OjTY9dWrXUYTkJHeMld-3" value="AI Battling Phase" style="shape=step;perimeter=stepPerimeter;whiteSpace=wrap;html=1;fixedSize=1;fontSize=24;" parent="1" vertex="1">
                    <mxGeometry x="280" y="280" width="290" height="80" as="geometry"/>
                </mxCell>
                <mxCell id="-OjTY9dWrXUYTkJHeMld-6" value="" style="endArrow=classic;html=1;fontSize=24;exitX=0.5;exitY=1;exitDx=0;exitDy=0;" parent="1" source="-OjTY9dWrXUYTkJHeMld-3" target="m0CtZ8DKrAng0Kh8f4uu-1" edge="1">
                    <mxGeometry width="50" height="50" relative="1" as="geometry">
                        <mxPoint x="400" y="530" as="sourcePoint"/>
                        <mxPoint x="425" y="470" as="targetPoint"/>
                    </mxGeometry>
                </mxCell>
                <mxCell id="m0CtZ8DKrAng0Kh8f4uu-1" value="When Winner Is Declared" style="html=1;whiteSpace=wrap;container=1;recursiveResize=0;collapsible=0;fontSize=24;" parent="1" vertex="1">
                    <mxGeometry x="220" y="435" width="410" height="70" as="geometry"/>
                </mxCell>
                <mxCell id="m0CtZ8DKrAng0Kh8f4uu-2" value="" style="triangle;html=1;whiteSpace=wrap;fontSize=24;" parent="m0CtZ8DKrAng0Kh8f4uu-1" vertex="1">
                    <mxGeometry x="20" y="20" width="20" height="30" as="geometry"/>
                </mxCell>
                <mxCell id="m0CtZ8DKrAng0Kh8f4uu-4" value="" style="curved=1;endArrow=classic;html=1;fontSize=24;startArrow=none;exitX=0.5;exitY=1;exitDx=0;exitDy=0;" parent="1" source="m0CtZ8DKrAng0Kh8f4uu-1" target="m0CtZ8DKrAng0Kh8f4uu-7" edge="1">
                    <mxGeometry width="50" height="50" relative="1" as="geometry">
                        <mxPoint x="480" y="580" as="sourcePoint"/>
                        <mxPoint x="210" y="680" as="targetPoint"/>
                        <Array as="points">
                            <mxPoint x="150" y="530"/>
                        </Array>
                    </mxGeometry>
                </mxCell>
                <mxCell id="m0CtZ8DKrAng0Kh8f4uu-5" value="Voting Phase (1m)" style="shape=step;perimeter=stepPerimeter;whiteSpace=wrap;html=1;fixedSize=1;fontSize=24;" parent="1" vertex="1">
                    <mxGeometry x="190" y="650" width="260" height="50" as="geometry"/>
                </mxCell>
                <mxCell id="m0CtZ8DKrAng0Kh8f4uu-6" value="Prep. Phase (2m)" style="shape=step;perimeter=stepPerimeter;whiteSpace=wrap;html=1;fixedSize=1;fontSize=24;" parent="1" vertex="1">
                    <mxGeometry x="430" y="650" width="260" height="50" as="geometry"/>
                </mxCell>
                <mxCell id="m0CtZ8DKrAng0Kh8f4uu-8" value="" style="curved=1;endArrow=none;html=1;fontSize=24;entryX=0.5;entryY=1;entryDx=0;entryDy=0;exitX=0.5;exitY=1;exitDx=0;exitDy=0;" parent="1" source="m0CtZ8DKrAng0Kh8f4uu-7" edge="1">
                    <mxGeometry width="50" height="50" relative="1" as="geometry">
                        <mxPoint x="425" y="505" as="sourcePoint"/>
                        <mxPoint x="210" y="680" as="targetPoint"/>
                        <Array as="points">
                            <mxPoint x="120" y="670"/>
                        </Array>
                    </mxGeometry>
                </mxCell>
                <mxCell id="m0CtZ8DKrAng0Kh8f4uu-7" value="Disable Chat/Enable Entries" style="rounded=0;whiteSpace=wrap;html=1;fontSize=24;" parent="1" vertex="1">
                    <mxGeometry x="60" y="560" width="340" height="60" as="geometry"/>
                </mxCell>
                <mxCell id="m0CtZ8DKrAng0Kh8f4uu-9" value="" style="curved=1;endArrow=classic;html=1;fontSize=24;exitX=1;exitY=0.5;exitDx=0;exitDy=0;entryX=1;entryY=0.5;entryDx=0;entryDy=0;" parent="1" source="m0CtZ8DKrAng0Kh8f4uu-6" target="m0CtZ8DKrAng0Kh8f4uu-11" edge="1">
                    <mxGeometry width="50" height="50" relative="1" as="geometry">
                        <mxPoint x="400" y="510" as="sourcePoint"/>
                        <mxPoint x="600" y="770" as="targetPoint"/>
                        <Array as="points">
                            <mxPoint x="810" y="680"/>
                            <mxPoint x="750" y="790"/>
                        </Array>
                    </mxGeometry>
                </mxCell>
                <mxCell id="m0CtZ8DKrAng0Kh8f4uu-11" value="Enable Chat/Disable Entries" style="rounded=0;whiteSpace=wrap;html=1;fontSize=24;" parent="1" vertex="1">
                    <mxGeometry x="360" y="740" width="360" height="60" as="geometry"/>
                </mxCell>
                <mxCell id="m0CtZ8DKrAng0Kh8f4uu-12" value="" style="endArrow=classic;html=1;fontSize=24;exitX=0;exitY=0.5;exitDx=0;exitDy=0;" parent="1" source="m0CtZ8DKrAng0Kh8f4uu-11" target="m0CtZ8DKrAng0Kh8f4uu-13" edge="1">
                    <mxGeometry width="50" height="50" relative="1" as="geometry">
                        <mxPoint x="400" y="510" as="sourcePoint"/>
                        <mxPoint x="300" y="770" as="targetPoint"/>
                    </mxGeometry>
                </mxCell>
                <mxCell id="m0CtZ8DKrAng0Kh8f4uu-13" value="Planning Phase (2m)" style="shape=step;perimeter=stepPerimeter;whiteSpace=wrap;html=1;fixedSize=1;fontSize=24;direction=west;" parent="1" vertex="1">
                    <mxGeometry x="70" y="745" width="260" height="50" as="geometry"/>
                </mxCell>
                <mxCell id="m0CtZ8DKrAng0Kh8f4uu-14" value="" style="curved=1;endArrow=classic;html=1;fontSize=24;exitX=1;exitY=0.5;exitDx=0;exitDy=0;" parent="1" source="m0CtZ8DKrAng0Kh8f4uu-13" target="-OjTY9dWrXUYTkJHeMld-3" edge="1">
                    <mxGeometry width="50" height="50" relative="1" as="geometry">
                        <mxPoint x="400" y="510" as="sourcePoint"/>
                        <mxPoint x="450" y="460" as="targetPoint"/>
                        <Array as="points">
                            <mxPoint x="-40" y="680"/>
                            <mxPoint x="130" y="300"/>
                        </Array>
                    </mxGeometry>
                </mxCell>
                <mxCell id="m0CtZ8DKrAng0Kh8f4uu-15" value="" style="curved=1;endArrow=classic;html=1;fontSize=24;" parent="1" edge="1">
                    <mxGeometry width="50" height="50" relative="1" as="geometry">
                        <mxPoint x="430" y="510" as="sourcePoint"/>
                        <mxPoint x="740" y="580" as="targetPoint"/>
                        <Array as="points">
                            <mxPoint x="930" y="550"/>
                        </Array>
                    </mxGeometry>
                </mxCell>
                <mxCell id="m0CtZ8DKrAng0Kh8f4uu-17" value="Send Stats" style="shape=display;whiteSpace=wrap;html=1;fontSize=24;" parent="1" vertex="1">
                    <mxGeometry x="530" y="560" width="210" height="40" as="geometry"/>
                </mxCell>
                <mxCell id="m0CtZ8DKrAng0Kh8f4uu-18" value="" style="endArrow=classic;html=1;fontSize=24;exitX=0;exitY=0.5;exitDx=0;exitDy=0;exitPerimeter=0;" parent="1" source="m0CtZ8DKrAng0Kh8f4uu-17" edge="1">
                    <mxGeometry width="50" height="50" relative="1" as="geometry">
                        <mxPoint x="400" y="510" as="sourcePoint"/>
                        <mxPoint x="400" y="580" as="targetPoint"/>
                    </mxGeometry>
                </mxCell>
            </root>
        </mxGraphModel>
    </diagram>
</mxfile>